{
  "accessors": [
    {
      "bufferView": 1,
      "componentType": 5126,
      "count": 986,
      "max": [
        -304.05966186523438,
        -223.71022033691406,
        77.747024536132812
      ],
      "min": [
        -363.60519409179688,
        -286.32012939453125,
        7.7470231056213379
      ],
      "type": "VEC3"
    },
    {
      "bufferView": 1,
      "byteOffset": 11832,
      "componentType": 5126,
      "count": 986,
      "max": [
        0.99998897314071655,
        0.99934852123260498,
        0.99902266263961792
      ],
      "min": [
        -0.99998903274536133,
        -0.99934870004653931,
        -0.99842530488967896
      ],
      "type": "VEC3"
    },
    {
      "bufferView": 0,
      "componentType": 5125,
      "count": 2898,
      "max": [
        985
      ],
      "min": [
        0
      ],
      "type": "SCALAR"
    }
  ],
  "asset": {
    "extras": {
      "author": "ConstrucTTransparent (https://sketchfab.com/ctfab)",
      "license": "CC-BY-4.0 (http://creativecommons.org/licenses/by/4.0/)",
      "source": "https://sketchfab.com/3d-models/icossahedron-70mm-ce5dd68192594ef2839ebaecb6d4dd0f",
      "title": "Icossahedron 70mm"
    },
    "generator": "Sketchfab-4.49.1",
    "version": "2.0"
  },
  "bufferViews": [
    {
      "buffer": 0,
      "byteLength": 11592,
      "byteOffset": 0,
      "name": "floatBufferViews",
      "target": 34963
    },
    {
      "buffer": 0,
      "byteLength": 23664,
      "byteOffset": 11592,
      "byteStride": 12,
      "name": "floatBufferViews",
      "target": 34962
    }
  ],
  "buffers": [
    {
      "byteLength": 35256,
      "uri": "Icosahedron.bin"
    }
  ],
  "materials": [
    {
      "doubleSided": true,
      "emissiveFactor": [
        0,
        0,
        0
      ],
      "name": "Scene_-_Root",
      "pbrMetallicRoughness": {
        "baseColorFactor": [
          0.42458375349999999,
          0.86658075530000001,
          0.91433745280000001,
          1
        ],
        "metallicFactor": 0,
        "roughnessFactor": 0.59999999999999998
      }
    }
  ],
  "meshes": [
    {
      "primitives": [
        {
          "attributes": {
            "NORMAL": 1,
            "POSITION": 0
          },
          "indices": 2,
          "material": 0,
          "mode": 4
        }
      ]
    }
  ],
  "nodes": [
    {
      "children": [
        1
      ],
      "name": "RootNode (gltf orientation matrix)",
      "rotation": [
        -0.70710678118654746,
        -0,
        -0,
        0.70710678118654757
      ]
    },
    {
      "children": [
        2
      ],
      "name": "RootNode (model correction matrix)"
    },
    {
      "children": [
        3
      ],
      "name": "cf78909af63d4ac49d64c17f7698fd2e.stl.cleaner"
    },
    {
      "mesh": 0,
      "name": ""
    }
  ],
  "scene": 0,
  "scenes": [
    {
      "name": "OSG_Scene",
      "nodes": [
        0
      ]
    }
  ]
}

